<svg width="37" height="37" viewBox="0 0 37 37" fill="none" xmlns="http://www.w3.org/2000/svg">
<g clip-path="url(#clip0_493_8671)">
<path d="M11.4803 12.4918C11.5418 12.4914 11.6033 12.491 11.6666 12.4906C11.7965 12.4899 11.9264 12.4895 12.0563 12.4892C12.2534 12.4885 12.4505 12.4864 12.6476 12.4842C12.7743 12.4837 12.901 12.4833 13.0277 12.4831C13.0859 12.4822 13.1441 12.4814 13.2041 12.4805C13.7851 12.4826 14.2877 12.63 14.7483 12.9941C15.2852 13.5771 15.3139 14.147 15.3291 14.9055C15.3866 15.2128 15.4841 15.3114 15.7246 15.5048C16.0312 15.6664 16.2861 15.7845 16.6313 15.714C16.7798 15.6061 16.9106 15.4875 17.0443 15.3618C17.1836 15.2311 17.3258 15.1116 17.4769 14.9948C17.5188 14.962 17.5607 14.9292 17.6038 14.8954C17.9196 14.7015 18.2351 14.6451 18.6014 14.6374C18.6737 14.6346 18.746 14.6318 18.8205 14.629C19.6209 14.7528 20.1273 15.3199 20.671 15.8725C20.8069 16.0104 20.9447 16.1462 21.0827 16.282C21.1709 16.3704 21.2589 16.459 21.3469 16.5476C21.4078 16.6075 21.4078 16.6075 21.47 16.6686C21.8813 17.0917 22.1114 17.5616 22.1059 18.1593C22.0802 18.886 21.7955 19.2266 21.3055 19.7451C21.1 19.9684 21.0231 20.0538 21.0336 20.3648C21.0824 20.6786 21.1947 20.9606 21.3736 21.2235C21.6297 21.3942 21.7745 21.3833 22.0797 21.3935C22.7663 21.4273 23.3449 21.5625 23.8276 22.0865C24.1897 22.611 24.244 23.0563 24.2471 23.6742C24.2475 23.7357 24.2479 23.7972 24.2483 23.8605C24.249 23.9904 24.2494 24.1203 24.2497 24.2502C24.2504 24.4474 24.2526 24.6444 24.2548 24.8415C24.2552 24.9682 24.2556 25.0949 24.2558 25.2216C24.2567 25.2798 24.2576 25.338 24.2585 25.398C24.2562 25.9959 24.1012 26.5738 23.675 27.0119C23.2022 27.3691 22.7973 27.4445 22.2153 27.4665C21.9125 27.4815 21.6479 27.5067 21.3736 27.6396C21.2489 27.8045 21.2489 27.8045 21.1731 28.0057C21.1302 28.1034 21.1302 28.1034 21.0865 28.203C21.0186 28.4275 20.9984 28.5921 21.0249 28.8252C21.1131 28.9734 21.1131 28.9734 21.2428 29.0954C21.4197 29.283 21.5877 29.47 21.7441 29.6752C21.7933 29.7392 21.7933 29.7392 21.8435 29.8046C22.1504 30.2805 22.1225 30.804 22.0509 31.35C21.9228 31.8048 21.5455 32.1326 21.2233 32.4601C21.0766 32.6095 20.932 32.7607 20.7871 32.9118C20.6776 33.0244 20.568 33.1369 20.4583 33.2493C20.4067 33.303 20.3551 33.3567 20.302 33.4119C19.8368 33.8818 19.3324 34.2681 18.6494 34.2867C18.036 34.277 17.6263 34.0976 17.1936 33.6634C17.1193 33.5822 17.1193 33.5822 17.0434 33.4994C16.8673 33.3128 16.748 33.2257 16.4918 33.1883C16.1164 33.1972 15.7662 33.3846 15.4457 33.5675C15.3593 33.7404 15.3631 33.8937 15.3557 34.0842C15.3285 34.7753 15.2531 35.4197 14.7483 35.9387C14.4034 36.1992 14.0962 36.3648 13.6578 36.3684C13.5924 36.3691 13.527 36.3697 13.4596 36.3704C13.389 36.3707 13.3183 36.371 13.2456 36.3713C13.1728 36.3717 13.0999 36.3721 13.0248 36.3725C12.8705 36.3732 12.7163 36.3736 12.562 36.3739C12.3267 36.3746 12.0915 36.3767 11.8562 36.3789C11.7062 36.3794 11.5562 36.3798 11.4062 36.38C11.3362 36.3809 11.2661 36.3817 11.1939 36.3826C10.559 36.3806 10.1777 36.2145 9.70819 35.7831C9.2918 35.3574 9.29324 34.9005 9.27857 34.336C9.26375 34.008 9.21787 33.7691 9.02958 33.4978C8.82424 33.368 8.82424 33.368 8.58499 33.2886C8.50677 33.2584 8.42856 33.2282 8.34798 33.197C8.09164 33.1424 7.99818 33.1584 7.77425 33.2886C7.65536 33.3926 7.65536 33.3926 7.55196 33.5152C7.12351 33.9643 6.61269 34.2674 5.98716 34.2867C5.2053 34.2707 4.73404 33.8708 4.19993 33.3394C4.06532 33.2063 3.92845 33.0757 3.79143 32.945C2.47357 31.6748 2.47357 31.6748 2.4522 30.8041C2.46455 29.9473 2.93754 29.4775 3.5201 28.8949C3.5794 28.4205 3.46116 28.0245 3.17139 27.6396C2.84937 27.4535 2.49099 27.4739 2.12938 27.4668C1.50812 27.4425 1.08649 27.1683 0.660744 26.733C0.436268 26.4216 0.373992 26.1544 0.369439 25.7752C0.368544 25.71 0.367648 25.6448 0.366726 25.5776C0.366211 25.5076 0.365696 25.4376 0.365165 25.3654C0.364602 25.2928 0.364039 25.2203 0.363459 25.1455C0.362495 24.9919 0.361747 24.8383 0.361198 24.6847C0.360394 24.5281 0.358968 24.3714 0.356907 24.2148C0.353924 23.9881 0.352802 23.7614 0.352089 23.5347C0.350868 23.4653 0.349647 23.3958 0.348389 23.3242C0.349755 22.8816 0.423789 22.5746 0.660744 22.1999C0.699581 22.138 0.738417 22.0762 0.778431 22.0124C1.30968 21.4812 1.9103 21.4187 2.62777 21.4089C2.85844 21.3996 3.00555 21.3819 3.1951 21.2458C3.41269 20.9417 3.52598 20.6143 3.58984 20.2471C3.47437 19.9007 3.29319 19.7401 3.03191 19.4931C2.63371 19.1067 2.4669 18.6802 2.4304 18.1288C2.48404 17.2535 3.07182 16.6579 3.66806 16.0809C3.79078 15.962 3.91173 15.8415 4.03252 15.7207C5.09782 14.6655 5.09782 14.6655 5.9305 14.6418C6.6188 14.6495 7.01394 14.8681 7.49529 15.3479C7.57081 15.4293 7.57081 15.4293 7.64785 15.5124C7.80878 15.6803 7.87361 15.7112 8.10661 15.7276C8.34788 15.7131 8.51259 15.6627 8.73318 15.5658C8.79899 15.5383 8.8648 15.5108 8.9326 15.4825C9.15651 15.3251 9.18301 15.2127 9.2388 14.9469C9.25204 14.7626 9.2607 14.582 9.26495 14.3977C9.2841 13.954 9.34088 13.6466 9.5875 13.2731C9.62634 13.2113 9.66518 13.1494 9.70519 13.0857C10.2183 12.5726 10.7881 12.4953 11.4803 12.4918ZM10.6336 13.9705C10.5549 14.128 10.5483 14.234 10.5364 14.4091C10.5315 14.4691 10.5267 14.529 10.5218 14.5908C10.5122 14.7161 10.5033 14.8414 10.4951 14.9668C10.4526 15.4726 10.3136 15.842 10.0059 16.2458C9.32534 16.7846 8.56426 17.0376 7.70451 16.9693C7.23587 16.8929 6.94443 16.603 6.60937 16.2828C6.32968 16.0168 6.32968 16.0168 5.97844 15.8796C5.40143 15.9906 4.90583 16.6889 4.50518 17.0914C4.44566 17.1506 4.38615 17.2099 4.32483 17.2709C4.26802 17.3278 4.2112 17.3847 4.15266 17.4434C4.07582 17.5203 4.07582 17.5203 3.99742 17.5988C3.81584 17.7932 3.73121 17.8975 3.7206 18.168C3.81732 18.4958 3.96837 18.6221 4.2126 18.851C4.6605 19.2879 4.81051 19.7669 4.84516 20.3866C4.82184 21.0047 4.44809 21.7333 4.04369 22.1846C3.58988 22.5861 3.11953 22.6526 2.52703 22.6591C2.20344 22.6662 1.98214 22.7264 1.70685 22.8973C1.58823 23.1345 1.6227 23.4049 1.62049 23.666C1.61993 23.7287 1.61936 23.7913 1.61878 23.8558C1.61782 23.9884 1.61707 24.121 1.61652 24.2536C1.61532 24.4564 1.61226 24.6592 1.60918 24.862C1.60848 24.9907 1.60788 25.1195 1.60741 25.2483C1.60619 25.3089 1.60497 25.3696 1.60371 25.4321C1.60452 25.7743 1.60452 25.7743 1.7592 26.0732C1.92986 26.184 2.02243 26.2123 2.22391 26.2206C2.28242 26.2241 2.34093 26.2277 2.40122 26.2313C2.46263 26.2343 2.52405 26.2373 2.58732 26.2404C3.1862 26.2862 3.68062 26.3473 4.13005 26.7807C4.57927 27.3195 4.86659 28.0519 4.84516 28.7555C4.76961 29.3862 4.44858 29.8068 3.99466 30.2274C3.86328 30.3653 3.78825 30.4573 3.72932 30.6384C3.74361 31.0514 3.92345 31.2326 4.20306 31.5072C4.24376 31.5482 4.28447 31.5893 4.32641 31.6316C4.41245 31.7178 4.49894 31.8037 4.58583 31.8891C4.71834 32.0198 4.84888 32.1521 4.97933 32.2848C5.06335 32.3686 5.14748 32.4523 5.23173 32.5359C5.27054 32.5754 5.30935 32.6149 5.34933 32.6556C5.58732 32.8866 5.75365 33.0041 6.10049 33.0096C6.36512 32.8745 6.55211 32.6993 6.7543 32.4866C7.11903 32.1138 7.51227 31.9272 8.03415 31.8916C8.71596 31.901 9.55108 32.1943 10.0395 32.6755C10.4461 33.1548 10.4735 33.7337 10.5034 34.3332C10.5075 34.3924 10.5117 34.4516 10.5159 34.5126C10.5185 34.5655 10.5211 34.6185 10.5238 34.6731C10.5831 34.8948 10.6532 34.9705 10.8428 35.1018C11.0572 35.1429 11.268 35.1409 11.4857 35.1389C11.5482 35.1391 11.6106 35.1394 11.6749 35.1397C11.8066 35.1399 11.9384 35.1394 12.0702 35.1382C12.2718 35.1367 12.4733 35.1382 12.6749 35.14C12.803 35.1398 12.9311 35.1394 13.0593 35.1389C13.1496 35.1397 13.1496 35.1397 13.2418 35.1406C13.5836 35.1363 13.5836 35.1363 13.8775 34.9731C14.0464 34.7282 14.0584 34.5214 14.0676 34.2303C14.0881 33.6349 14.1455 33.1558 14.5551 32.6952C15.0924 32.2118 15.8402 31.9153 16.5615 31.8938C17.2476 31.9477 17.6516 32.3407 18.1263 32.8056C18.3394 32.9657 18.4568 33.0113 18.7235 33.0096C19.0256 32.8318 19.2669 32.6229 19.5135 32.3751C19.5466 32.342 19.5798 32.3088 19.6139 32.2746C19.6832 32.2051 19.7524 32.1354 19.8213 32.0656C19.9268 31.9588 20.0329 31.8526 20.139 31.7465C20.5955 31.3342 20.5955 31.3342 20.8549 30.7997C20.8037 30.4983 20.669 30.3742 20.4634 30.1557C19.9674 29.6269 19.7269 29.174 19.738 28.437C19.821 27.8079 20.1146 27.0438 20.5942 26.6207C21.1787 26.263 21.7329 26.229 22.4102 26.2127C22.6693 26.1681 22.75 26.1023 22.9079 25.8961C22.9938 25.6384 22.9903 25.398 22.9918 25.1295C22.9922 25.0749 22.9926 25.0203 22.993 24.964C22.9937 24.8486 22.9941 24.7331 22.9944 24.6176C22.9951 24.4414 22.9972 24.2653 22.9994 24.0891C22.9999 23.9768 23.0003 23.8645 23.0005 23.7521C23.0014 23.6997 23.0022 23.6472 23.0031 23.5932C23.0018 23.2781 22.9613 23.0789 22.7684 22.8275C22.5197 22.6361 22.2231 22.6712 21.9228 22.6663C21.3085 22.6419 20.8287 22.5146 20.3798 22.0691C19.944 21.4963 19.6944 20.7545 19.7339 20.0379C19.8321 19.462 20.1299 19.0787 20.5528 18.6913C20.7195 18.532 20.8074 18.4035 20.8549 18.1767C20.7544 17.5847 20.0178 17.0675 19.6083 16.6599C19.5452 16.5964 19.482 16.533 19.4169 16.4677C19.3567 16.4075 19.2964 16.3473 19.2343 16.2853C19.1524 16.2035 19.1524 16.2035 19.0688 16.1201C18.9002 15.9626 18.8269 15.9271 18.5965 15.9006C18.3146 15.9294 18.2325 16.0166 18.0348 16.2153C17.4809 16.7458 17.043 17.0046 16.2654 16.9977C15.5759 16.9231 14.841 16.6099 14.3996 16.0627C14.095 15.639 14.085 15.1743 14.0798 14.6699C14.0734 14.3549 14.0432 14.1476 13.8417 13.9008C13.5829 13.7212 13.304 13.7399 13.001 13.7403C12.9466 13.74 12.8923 13.7397 12.8363 13.7394C12.7215 13.739 12.6067 13.739 12.492 13.7393C12.3172 13.7395 12.1425 13.7379 11.9677 13.7361C11.8559 13.7359 11.7441 13.7359 11.6323 13.736C11.5804 13.7353 11.5285 13.7347 11.4751 13.734C11.1435 13.7369 10.9146 13.7934 10.6336 13.9705Z" fill="white"/>
<path d="M18.7825 0.602988C18.8815 0.602753 18.9804 0.602414 19.0794 0.601978C19.2857 0.601467 19.492 0.6022 19.6983 0.60384C19.961 0.605826 20.2235 0.604681 20.4861 0.602594C20.6902 0.601326 20.8942 0.601739 21.0982 0.602639C21.195 0.602869 21.2917 0.602594 21.3885 0.601774C22.049 0.597402 22.608 0.657209 23.1107 1.12041C23.499 1.53086 23.6362 1.97156 23.6363 2.52847C23.6376 2.60514 23.6376 2.60514 23.639 2.68336C23.6419 2.84513 23.6434 3.00688 23.6447 3.16867C23.6464 3.33095 23.6483 3.4932 23.6511 3.65547C23.6528 3.75598 23.6538 3.8565 23.6541 3.95703C23.6584 4.23168 23.6709 4.45685 23.8147 4.69424C23.991 4.81199 23.991 4.81199 24.2078 4.8961C24.287 4.92959 24.3661 4.96308 24.4477 4.99758C24.5308 5.03125 24.6139 5.06492 24.6995 5.0996C24.7813 5.13462 24.8631 5.16963 24.9473 5.20571C25.5114 5.44389 25.5114 5.44389 26.1161 5.46138C26.3051 5.33583 26.3051 5.33583 26.4646 5.15327C26.5575 5.05652 26.5575 5.05652 26.6524 4.95781C26.7164 4.88892 26.7802 4.81995 26.844 4.7509C27.5002 4.05355 27.9836 3.55962 28.9755 3.50865C29.679 3.56128 30.0954 3.98028 30.5689 4.46077C30.6201 4.51218 30.6713 4.56359 30.7241 4.61656C30.8869 4.78015 31.0492 4.94422 31.2115 5.10832C31.3209 5.21837 31.4302 5.32838 31.5397 5.43836C31.7844 5.68449 32.0288 5.93096 32.273 6.17765C32.3787 6.28407 32.4848 6.38996 32.5912 6.49565C33.0058 6.91316 33.1844 7.27033 33.2313 7.85462C33.224 8.68954 32.6839 9.2318 32.1224 9.78555C32.0663 9.84012 32.0103 9.89469 31.9525 9.95091C31.8393 10.0617 31.7262 10.1727 31.6133 10.2838C31.5638 10.3321 31.5142 10.3804 31.4632 10.4302C31.3185 10.5819 31.2807 10.6599 31.2559 10.8687C31.2848 11.201 31.4078 11.4661 31.5428 11.7685C31.5676 11.8257 31.5925 11.883 31.6181 11.9419C31.667 12.0543 31.7165 12.1664 31.7666 12.2782C31.8099 12.3779 31.8505 12.4787 31.8875 12.5809C31.9817 12.8401 31.9817 12.8401 32.1921 13.0055C32.4376 13.0759 32.668 13.0812 32.921 13.0797C33.0247 13.0808 33.1285 13.0819 33.2322 13.0831C33.394 13.0842 33.5557 13.0849 33.7174 13.0844C34.4205 13.0835 35.0489 13.0996 35.5935 13.6039C36.1214 14.1584 36.1221 14.7413 36.1217 15.4727C36.1222 15.5719 36.1227 15.6712 36.1233 15.7705C36.1242 15.978 36.1243 16.1856 36.1239 16.3932C36.1235 16.6574 36.1256 16.9216 36.1285 17.1859C36.1303 17.3908 36.1305 17.5957 36.1302 17.8007C36.1303 17.898 36.131 17.9953 36.1323 18.0927C36.1399 18.7581 36.0817 19.3117 35.6199 19.8212C35.1949 20.2319 34.6876 20.3469 34.1156 20.3419C34.0074 20.3432 33.8993 20.3444 33.7911 20.3456C33.6229 20.3463 33.4547 20.3466 33.2865 20.3465C33.1226 20.3467 32.9588 20.3486 32.7948 20.3507C32.7446 20.3501 32.6944 20.3495 32.6427 20.3489C32.4103 20.3524 32.2775 20.3677 32.089 20.5084C31.9776 20.6603 31.9006 20.7954 31.8299 20.9696C31.8063 21.0269 31.7826 21.0842 31.7583 21.1433C31.7346 21.2026 31.711 21.2619 31.6866 21.3229C31.6624 21.382 31.6383 21.441 31.6133 21.5018C31.547 21.6642 31.4816 21.827 31.4164 21.9898C31.3747 22.0907 31.3747 22.0907 31.3322 22.1936C31.2505 22.4078 31.2366 22.5283 31.2769 22.757C31.4727 23.0646 31.7569 23.3075 32.0182 23.5587C33.1865 24.6881 33.1865 24.6881 33.234 25.5313C33.2092 26.411 32.6484 26.9169 32.0579 27.5113C31.9997 27.5702 31.9414 27.6291 31.8813 27.6898C31.7586 27.8136 31.6357 27.9371 31.5126 28.0605C31.3253 28.2486 31.1393 28.438 30.9534 28.6274C30.8335 28.748 30.7135 28.8685 30.5934 28.9889C30.5385 29.0452 30.4835 29.1015 30.4269 29.1595C30.0285 29.5547 29.6479 29.8238 29.0842 29.9051C29.0123 29.9037 28.9405 29.9024 28.8665 29.901C28.7585 29.9009 28.7585 29.9009 28.6483 29.9007C28.1534 29.8359 27.8202 29.6651 27.4586 29.3169C27.4221 29.2819 27.3855 29.247 27.3478 29.2109C27.2151 29.0831 27.0841 28.9538 26.953 28.8244C26.8952 28.7679 26.8374 28.7114 26.7779 28.6533C26.5872 28.4668 26.3973 28.2796 26.2077 28.0921C26.1459 28.0313 26.0841 27.9704 26.0204 27.9077C25.9626 27.8499 25.9047 27.7921 25.8451 27.7325C25.7931 27.6809 25.7412 27.6292 25.6877 27.576C25.5299 27.3976 25.4244 27.2494 25.4105 27.0087C25.4558 26.6302 25.4558 26.6302 25.6061 26.4576C25.808 26.3648 25.963 26.3228 26.1859 26.3137C26.5049 26.4677 26.7291 26.7004 26.9732 26.9504C27.0344 27.0121 27.0344 27.0121 27.0968 27.0751C27.2265 27.206 27.3557 27.3374 27.4848 27.4688C27.6145 27.6004 27.7442 27.7319 27.8742 27.8632C27.9549 27.9448 28.0354 28.0265 28.1157 28.1084C28.4182 28.4239 28.4182 28.4239 28.8142 28.5846C29.0663 28.5418 29.1215 28.4978 29.3047 28.3313C29.3538 28.2869 29.4028 28.2424 29.4534 28.1967C29.8415 27.8354 30.2212 27.4661 30.5987 27.0937C30.7026 26.9917 30.8071 26.8901 30.912 26.789C31.0646 26.6419 31.2156 26.4933 31.3663 26.3442C31.4369 26.2771 31.4369 26.2771 31.5089 26.2086C31.7339 25.9826 31.8276 25.883 31.8685 25.5573C31.834 25.3319 31.8121 25.2528 31.6561 25.0933C31.6123 25.0471 31.5686 25.0009 31.5234 24.9532C31.381 24.8132 31.2375 24.6744 31.0936 24.5359C29.9602 23.4402 29.9602 23.4402 29.8952 22.587C29.9168 21.9662 30.18 21.441 30.4403 20.8863C30.5337 20.6822 30.6127 20.4733 30.6928 20.2638C30.9133 19.7393 31.1816 19.4207 31.7003 19.1811C32.017 19.0619 32.3137 19.0505 32.6499 19.0485C32.7558 19.0469 32.8617 19.0452 32.9676 19.0434C33.1338 19.041 33.2999 19.0389 33.4662 19.038C33.6271 19.0369 33.7879 19.0341 33.9488 19.031C34.0232 19.0312 34.0232 19.0312 34.099 19.0314C34.3226 19.0259 34.4577 19.0119 34.6375 18.8742C34.7951 18.672 34.7992 18.5667 34.8 18.3124C34.8013 18.1919 34.8013 18.1919 34.8027 18.0691C34.8021 17.9827 34.8016 17.8963 34.801 17.8073C34.8014 17.674 34.8014 17.674 34.8018 17.538C34.802 17.35 34.8016 17.1622 34.8003 16.9743C34.7987 16.7335 34.7996 16.4928 34.8013 16.252C34.8025 16.0222 34.8017 15.7924 34.801 15.5626C34.8018 15.4328 34.8018 15.4328 34.8027 15.3004C34.8018 15.2203 34.8009 15.1402 34.8 15.0577C34.7998 14.9872 34.7996 14.9166 34.7993 14.8439C34.7793 14.659 34.7793 14.659 34.6367 14.5398C34.4149 14.4201 34.2271 14.4309 33.9763 14.4295C33.9025 14.4284 33.9025 14.4284 33.8273 14.4273C33.6702 14.4249 33.5131 14.4238 33.356 14.423C31.6726 14.4146 31.6726 14.4146 31.0677 13.8302C30.7774 13.4471 30.6014 13.0165 30.4313 12.5705C30.3847 12.4506 30.338 12.3306 30.2913 12.2107C30.2694 12.1536 30.2475 12.0965 30.2249 12.0377C30.1683 11.8957 30.1064 11.7582 30.0417 11.6198C29.9445 11.3704 29.9194 11.1811 29.917 10.9142C29.9137 10.797 29.9137 10.797 29.9104 10.6775C30.029 9.92015 30.5137 9.45889 31.0503 8.9484C31.1839 8.81939 31.317 8.68991 31.4502 8.56047C31.5383 8.47618 31.5383 8.47618 31.6283 8.3902C31.798 8.2175 31.8297 8.13827 31.8753 7.89887C31.8132 7.47625 31.5541 7.27272 31.257 6.98068C31.1682 6.89116 31.1682 6.89116 31.0776 6.79984C30.9522 6.67411 30.8262 6.54899 30.6996 6.42445C30.5061 6.23356 30.3153 6.0402 30.1247 5.84645C30.0025 5.72457 29.8801 5.60283 29.7576 5.48127C29.7006 5.42331 29.6437 5.36534 29.585 5.30562C29.2653 4.99123 29.2653 4.99123 28.8479 4.85432C28.617 4.90563 28.519 4.94867 28.3519 5.11186C28.3052 5.15651 28.2586 5.20115 28.2105 5.24715C28.1637 5.29483 28.117 5.34252 28.0689 5.39164C28.0231 5.43797 27.9774 5.4843 27.9302 5.53204C27.7442 5.72305 27.5595 5.91524 27.3776 6.11016C26.954 6.54706 26.504 6.82305 25.8808 6.83875C25.2565 6.82186 24.7334 6.55986 24.176 6.29826C23.9702 6.20392 23.7598 6.12289 23.5488 6.0411C22.9786 5.80048 22.6662 5.47649 22.4199 4.90346C22.3463 4.61198 22.3386 4.32597 22.3354 4.02707C22.3335 3.9246 22.3315 3.82212 22.3294 3.71964C22.3266 3.55926 22.324 3.39889 22.3222 3.23849C22.3202 3.08288 22.317 2.92734 22.3136 2.77175C22.3133 2.70004 22.3133 2.70004 22.313 2.62688C22.3056 2.33978 22.2758 2.17849 22.0712 1.97437C21.8895 1.93204 21.8895 1.93204 21.6806 1.93827C21.6005 1.93739 21.5204 1.93651 21.4379 1.93561C21.3514 1.93617 21.2649 1.93673 21.1757 1.93732C21.0869 1.93705 20.9981 1.93678 20.9066 1.93651C20.7185 1.93632 20.5306 1.93669 20.3425 1.938C20.1018 1.93959 19.8612 1.93867 19.6205 1.937C19.3907 1.93575 19.1608 1.93663 18.931 1.93732C18.8446 1.93675 18.7582 1.93619 18.6692 1.93561C18.5488 1.93692 18.5488 1.93692 18.4259 1.93827C18.32 1.9386 18.32 1.9386 18.212 1.93894C17.9753 1.98409 17.8924 2.06402 17.7473 2.25333C17.7206 2.43744 17.71 2.59339 17.7121 2.7772C17.7115 2.82794 17.7108 2.87869 17.7102 2.93098C17.7082 3.09304 17.7079 3.25504 17.7081 3.41712C17.7054 5.07739 17.7054 5.07739 17.1866 5.62783C16.6207 6.0934 15.8288 6.32808 15.152 6.59655C15.0493 6.63811 14.948 6.68309 14.8471 6.72897C14.6308 6.80281 14.4407 6.81261 14.2123 6.81696C14.0933 6.82114 14.0933 6.82114 13.9718 6.8254C13.2112 6.71543 12.7487 6.225 12.2378 5.68804C12.1088 5.55444 11.9793 5.42129 11.8499 5.28812C11.7937 5.22935 11.7375 5.17058 11.6796 5.11002C11.5064 4.93979 11.4275 4.90846 11.1872 4.86317C10.768 4.9247 10.5737 5.18051 10.2878 5.47827C10.2298 5.53676 10.1719 5.59525 10.1121 5.65552C9.92743 5.8425 9.7445 6.03113 9.56152 6.21981C9.43677 6.34641 9.31191 6.47291 9.18694 6.59929C8.95934 6.8304 8.73195 7.0617 8.50605 7.29448C8.4606 7.34125 8.41515 7.38802 8.36832 7.43621C8.22516 7.59517 8.19474 7.67533 8.17203 7.89066C8.19775 8.16326 8.26812 8.24219 8.45657 8.43706C8.51393 8.49705 8.57129 8.55705 8.63038 8.61887C8.99369 8.98198 9.35814 9.34377 9.72852 9.69969C9.83113 9.79851 9.93284 9.89819 10.0344 9.99804C10.1243 10.0851 10.1243 10.0851 10.216 10.1738C10.3654 10.3561 10.4081 10.4591 10.4246 10.6919C10.3569 10.9287 10.2784 11.1051 10.0759 11.2498C9.88407 11.3152 9.88407 11.3152 9.65742 11.3196C9.29317 11.14 9.02353 10.926 8.73962 10.6388C8.70106 10.6004 8.66249 10.5621 8.62276 10.5225C8.54181 10.4417 8.46112 10.3607 8.38069 10.2793C8.25905 10.1566 8.13634 10.035 8.01348 9.91345C6.86915 8.77144 6.86915 8.77144 6.84165 7.89357C6.83823 7.82004 6.83482 7.7465 6.8313 7.67073C6.92995 6.97721 7.37435 6.50744 7.85643 6.03292C7.91808 5.97111 7.97973 5.90929 8.04324 5.8456C8.20599 5.68293 8.36954 5.52112 8.53341 5.35959C8.6332 5.26079 8.73234 5.16139 8.83128 5.06174C9.0228 4.8689 9.21529 4.67707 9.40815 4.48556C9.49601 4.39719 9.49601 4.39719 9.58564 4.30702C10.033 3.86846 10.4585 3.5498 11.1021 3.50675C11.9354 3.51672 12.4753 4.00045 13.0361 4.57097C13.1221 4.66003 13.1221 4.66003 13.2098 4.7509C13.3265 4.87064 13.4434 4.99024 13.5604 5.10968C13.6112 5.16217 13.662 5.21465 13.7143 5.26873C13.9053 5.4528 13.9596 5.46138 14.2341 5.46138C14.7645 5.39691 15.2472 5.12945 15.7248 4.90346C15.7886 4.87397 15.8525 4.84448 15.9182 4.8141C16.1819 4.70147 16.1819 4.70147 16.3525 4.48502C16.36 4.30934 16.3637 4.13525 16.3647 3.95951C16.3664 3.85159 16.368 3.74366 16.3698 3.63574C16.3722 3.46604 16.3743 3.29638 16.3752 3.12666C16.3802 2.38076 16.4339 1.82519 16.8494 1.18979C17.4198 0.644141 18.0216 0.596539 18.7825 0.602988Z" fill="white"/>
<path d="M15.7943 20.3161C16.8067 21.2064 17.5378 22.4165 17.6683 23.78C17.7522 25.2961 17.454 26.9492 16.422 28.1271C15.1048 29.2773 13.5975 29.9529 11.8303 29.8558C10.4026 29.697 9.11957 29.0811 8.15724 28.0004C7.43372 27.0794 6.92015 25.962 6.86759 24.7795C6.864 24.7295 6.8604 24.6796 6.85669 24.6281C6.82118 23.7462 7.0288 22.8433 7.42551 22.0596C7.45986 21.9911 7.4942 21.9225 7.52958 21.8518C8.1946 20.622 9.32175 19.6947 10.6554 19.2654C10.8566 19.2133 11.057 19.1691 11.2612 19.1306C11.3389 19.1147 11.4166 19.0989 11.4966 19.0826C13.092 18.9451 14.5435 19.3093 15.7943 20.3161ZM9.09928 21.7807C8.35909 22.7279 8.04336 23.8051 8.15534 24.9936C8.30154 26.0672 8.85518 27.0192 9.68608 27.7089C10.2362 28.1132 10.8621 28.4329 11.5402 28.5455C11.5965 28.5548 11.6527 28.5642 11.7107 28.5738C12.8914 28.7253 14.0137 28.3395 14.9575 27.6389C15.8055 26.9534 16.3012 25.9177 16.422 24.8493C16.5174 23.8125 16.2254 22.7572 15.5753 21.9422C15.4212 21.7659 15.2622 21.5979 15.0969 21.432C15.0592 21.3926 15.0214 21.3532 14.9825 21.3127C14.2725 20.6349 13.2443 20.332 12.2855 20.2856C11.0049 20.3291 9.96654 20.8526 9.09928 21.7807Z" fill="white"/>
<path d="M24.8535 10.5737C26.4445 11.9123 27.5002 13.6602 27.7701 15.7419C27.9463 17.9687 27.3799 20.0262 25.9765 21.7782C25.4284 22.3893 25.4284 22.3893 25.0829 22.4277C24.8097 22.4009 24.7063 22.3157 24.5119 22.1269C24.412 21.927 24.4208 21.7913 24.4422 21.569C24.5875 21.2965 24.7734 21.093 24.9827 20.8672C25.6077 20.1702 25.9783 19.3836 26.2554 18.5004C26.2792 18.4248 26.3031 18.3492 26.3276 18.2713C26.7557 16.6327 26.4592 14.8418 25.6335 13.3821C24.8222 12.119 23.7127 11.1549 22.3064 10.6285C22.2532 10.6085 22.2 10.5885 22.1451 10.568C20.8392 10.1048 19.3375 10.1162 18.0261 10.55C17.9805 10.565 17.935 10.5799 17.8881 10.5953C16.9986 10.8975 16.2745 11.3737 15.5961 12.0227C15.4122 12.1833 15.272 12.2875 15.0248 12.3017C14.6463 12.2565 14.6463 12.2565 14.4737 12.1061C14.3809 11.9042 14.3389 11.7493 14.3298 11.5264C14.7378 10.5321 16.1183 9.90777 17.0497 9.50392C19.6149 8.43887 22.6706 8.85854 24.8535 10.5737Z" fill="white"/>
</g>
<defs>
<clipPath id="clip0_493_8671">
<rect width="35.707" height="35.707" fill="white" transform="translate(0.381836 0.648438)"/>
</clipPath>
</defs>
</svg>
