<svg width="33" height="33" viewBox="0 0 33 33" fill="none" xmlns="http://www.w3.org/2000/svg">
<g clip-path="url(#clip0_493_8685)">
<path d="M27.7733 8.53103C27.8163 8.53063 27.8593 8.53022 27.9036 8.5298C28.0461 8.52857 28.1887 8.52785 28.3312 8.52723C28.4042 8.52685 28.4042 8.52685 28.4786 8.52646C28.7361 8.52516 28.9935 8.52427 29.2509 8.52369C29.517 8.523 29.783 8.52086 30.049 8.5184C30.2535 8.51677 30.4579 8.51625 30.6624 8.51603C30.7604 8.51572 30.8585 8.515 30.9566 8.51385C31.0938 8.51234 31.231 8.51239 31.3683 8.51282C31.4464 8.51246 31.5245 8.51209 31.6049 8.51172C31.8456 8.54862 31.9026 8.59906 32.0497 8.79068C32.0807 8.97241 32.0807 8.97241 32.0807 9.18868C32.081 9.22869 32.0814 9.26869 32.0817 9.30991C32.0825 9.44454 32.0816 9.57909 32.0807 9.71371C32.0809 9.81097 32.0813 9.90822 32.0817 10.0055C32.0827 10.2732 32.082 10.5408 32.0811 10.8085C32.0805 11.0971 32.0812 11.3856 32.0818 11.6741C32.0826 12.2394 32.0821 12.8048 32.0812 13.3702C32.0802 14.0281 32.0804 14.686 32.0806 15.3439C32.081 16.5175 32.0801 17.691 32.0786 18.8646C32.0771 20.0043 32.0767 21.144 32.0773 22.2837C32.078 23.5238 32.0781 24.7639 32.0772 26.004C32.0771 26.1361 32.077 26.2682 32.077 26.4004C32.0769 26.4654 32.0769 26.5304 32.0768 26.5974C32.0765 27.0564 32.0766 27.5154 32.0769 27.9744C32.0772 28.5334 32.0768 29.0924 32.0756 29.6515C32.075 29.9369 32.0747 30.2223 32.0752 30.5077C32.0756 30.7687 32.0752 31.0297 32.0741 31.2907C32.0738 31.3854 32.0739 31.4801 32.0743 31.5748C32.0748 31.703 32.0742 31.8311 32.0732 31.9593C32.0732 32.0307 32.0731 32.102 32.073 32.1756C32.0497 32.3495 32.0497 32.3495 31.9678 32.4657C31.7964 32.5823 31.6304 32.5597 31.4267 32.5601C31.3602 32.5606 31.3602 32.5606 31.2924 32.5611C31.1459 32.5619 30.9994 32.5614 30.8529 32.5608C30.7511 32.5609 30.6493 32.5611 30.5475 32.5613C30.3342 32.5616 30.1209 32.5612 29.9076 32.5603C29.634 32.5592 29.3604 32.5598 29.0868 32.561C28.8766 32.5616 28.6665 32.5614 28.4563 32.5609C28.3554 32.5608 28.2545 32.561 28.1536 32.5614C28.0127 32.5619 27.8718 32.5612 27.7308 32.5601C27.6506 32.56 27.5704 32.5598 27.4877 32.5597C27.2931 32.536 27.2931 32.536 27.177 32.449C27.033 32.2419 27.0382 32.0981 27.0379 31.8467C27.0375 31.7248 27.0375 31.7248 27.0372 31.6005C27.0372 31.5095 27.0373 31.4184 27.0373 31.3274C27.0372 31.2313 27.037 31.1353 27.0368 31.0393C27.0363 30.7744 27.0362 30.5095 27.0361 30.2446C27.036 29.9593 27.0356 29.674 27.0351 29.3887C27.0343 28.7644 27.0339 28.1401 27.0337 27.5158C27.0335 27.1262 27.0332 26.7367 27.0329 26.3471C27.0322 25.2691 27.0316 24.1912 27.0313 23.1133C27.0313 23.0442 27.0313 22.9752 27.0313 22.9041C27.0313 22.8349 27.0313 22.7657 27.0313 22.6944C27.0312 22.5542 27.0312 22.4139 27.0312 22.2737C27.0312 22.2041 27.0312 22.1346 27.0311 22.0629C27.0309 20.9354 27.0298 19.8079 27.0284 18.6804C27.0269 17.5238 27.0261 16.3671 27.0261 15.2104C27.026 14.5606 27.0257 13.9108 27.0245 13.261C27.0236 12.7078 27.0233 12.1545 27.0238 11.6013C27.024 11.3188 27.024 11.0364 27.0231 10.754C27.0223 10.4956 27.0224 10.2372 27.0231 9.97884C27.0233 9.88522 27.0231 9.7916 27.0225 9.69798C27.0218 9.57097 27.0224 9.44395 27.023 9.31694C27.023 9.24631 27.023 9.17569 27.0229 9.10292C27.0489 8.8915 27.1059 8.77429 27.2313 8.6042C27.4118 8.51341 27.5718 8.53262 27.7733 8.53103ZM27.9726 9.47444C27.9726 16.7976 27.9726 24.1207 27.9726 31.6657C29.0327 31.6657 30.0927 31.6657 31.1849 31.6657C31.1849 24.3426 31.1849 17.0195 31.1849 9.47444C30.1249 9.47444 29.0648 9.47444 27.9726 9.47444Z" fill="white"/>
<path d="M18.9422 13.1885C18.9841 13.1882 19.0259 13.188 19.069 13.1878C19.2068 13.1873 19.3447 13.1876 19.4825 13.188C19.5785 13.1879 19.6745 13.1878 19.7705 13.1877C19.9716 13.1875 20.1727 13.1878 20.3737 13.1883C20.6313 13.189 20.8889 13.1886 21.1465 13.1879C21.3447 13.1874 21.5429 13.1876 21.7411 13.1879C21.836 13.188 21.931 13.1879 22.026 13.1876C22.1588 13.1873 22.2915 13.1878 22.4243 13.1885C22.4998 13.1886 22.5753 13.1887 22.6532 13.1888C22.8411 13.2042 22.9434 13.2144 23.0925 13.3289C23.1979 13.5481 23.2315 13.724 23.2317 13.9663C23.2321 14.0313 23.2325 14.0962 23.2328 14.1632C23.2326 14.2341 23.2324 14.3051 23.2321 14.3782C23.2325 14.4917 23.2325 14.4917 23.2328 14.6075C23.2334 14.8175 23.2333 15.0273 23.2331 15.2372C23.2329 15.4637 23.2335 15.6901 23.2339 15.9166C23.2347 16.3601 23.2348 16.8036 23.2347 17.2471C23.2346 17.6076 23.2347 17.968 23.235 18.3284C23.235 18.3797 23.235 18.431 23.2351 18.4838C23.2351 18.588 23.2352 18.6922 23.2353 18.7963C23.236 19.7733 23.2358 20.7504 23.2355 21.7274C23.2351 22.6215 23.2358 23.5156 23.237 24.4098C23.2382 25.3276 23.2387 26.2455 23.2385 27.1634C23.2384 27.6788 23.2385 28.1942 23.2394 28.7096C23.2401 29.1483 23.2402 29.587 23.2395 30.0257C23.2391 30.2496 23.239 30.4735 23.2398 30.6973C23.2406 30.9399 23.2399 31.1824 23.2391 31.425C23.2396 31.4959 23.24 31.5669 23.2405 31.64C23.2398 31.7374 23.2398 31.7374 23.2392 31.8368C23.2392 31.9208 23.2392 31.9208 23.2392 32.0065C23.2081 32.2171 23.1194 32.385 22.9689 32.5365C22.8282 32.544 22.6872 32.547 22.5462 32.5484C22.502 32.549 22.4578 32.5495 22.4123 32.55C22.2654 32.5515 22.1185 32.5526 21.9716 32.5535C21.9215 32.5538 21.8715 32.5541 21.8199 32.5545C21.5548 32.5561 21.2898 32.5573 21.0248 32.5582C20.7507 32.5593 20.4768 32.562 20.2028 32.5652C19.9923 32.5673 19.7819 32.568 19.5715 32.5684C19.4704 32.5688 19.3694 32.5697 19.2684 32.5712C19.127 32.5732 18.9857 32.5732 18.8443 32.5727C18.7638 32.5732 18.6834 32.5737 18.6005 32.5742C18.3976 32.5365 18.3976 32.5365 18.2633 32.4252C18.0902 32.1189 18.1169 31.8286 18.12 31.482C18.1197 31.4058 18.1194 31.3295 18.1191 31.251C18.1185 31.0395 18.119 30.8281 18.12 30.6167C18.1208 30.3886 18.1202 30.1605 18.1198 29.9324C18.1192 29.4856 18.1199 29.0389 18.121 28.5921C18.1223 28.0721 18.1223 27.552 18.1222 27.0319C18.1222 26.1041 18.1233 25.1763 18.1251 24.2485C18.1268 23.3479 18.1277 22.4472 18.1276 21.5465C18.1276 21.4911 18.1276 21.4356 18.1276 21.3784C18.1276 21.323 18.1276 21.2677 18.1276 21.2106C18.1275 20.1857 18.1282 19.1608 18.1293 18.1359C18.1297 17.7732 18.1298 17.4105 18.1299 17.0479C18.13 16.606 18.1305 16.1642 18.1317 15.7224C18.1322 15.4969 18.1326 15.2714 18.1325 15.0459C18.1323 14.8017 18.1331 14.5575 18.134 14.3133C18.1338 14.2416 18.1336 14.17 18.1334 14.0962C18.1338 14.031 18.1342 13.9657 18.1346 13.8985C18.1347 13.8421 18.1348 13.7857 18.1349 13.7276C18.1517 13.5661 18.1893 13.4661 18.2741 13.3289C18.4836 13.1757 18.6896 13.1888 18.9422 13.1885ZM19.0771 14.137C19.0771 19.9216 19.0771 25.7063 19.0771 31.6662C20.1372 31.6662 21.1972 31.6662 22.2894 31.6662C22.2894 25.8816 22.2894 20.0969 22.2894 14.137C21.2294 14.137 20.1693 14.137 19.0771 14.137Z" fill="white"/>
<path d="M28.9069 0.690793C28.9613 0.689706 29.0156 0.68862 29.0716 0.6875C29.4236 0.687824 29.4236 0.687824 29.5615 0.785542C29.8182 1.14659 29.6129 1.875 29.5524 2.289C29.5433 2.35352 29.5341 2.41804 29.5247 2.48452C29.5054 2.61963 29.4858 2.75471 29.4659 2.88975C29.4358 3.09626 29.4069 3.30292 29.3781 3.50963C29.3591 3.64149 29.34 3.77333 29.3208 3.90517C29.308 3.99744 29.308 3.99744 29.295 4.09158C29.2462 4.41617 29.2017 4.69493 28.961 4.93713C28.505 4.96674 28.505 4.96674 28.3675 4.86014C28.1793 4.6206 28.2686 4.24849 28.2996 3.96111C28.3222 3.79262 28.3475 3.62482 28.3741 3.45694C28.3917 3.3439 28.4091 3.23083 28.4263 3.11772C28.4379 3.04407 28.4379 3.04407 28.4498 2.96892C28.4677 2.81563 28.4697 2.66708 28.4668 2.51287C28.4412 2.53563 28.4155 2.55839 28.3891 2.58183C28.0409 2.88965 27.6893 3.19322 27.337 3.49627C27.1876 3.62491 27.0386 3.75408 26.8901 3.8838C26.4989 4.22486 26.1022 4.5556 25.6933 4.87502C25.4643 5.05418 25.2405 5.23811 25.019 5.42665C24.1825 6.13251 23.2949 6.77703 22.4129 7.42355C22.3558 7.46565 22.3558 7.46565 22.2975 7.5086C21.5809 8.03646 20.852 8.54219 20.1118 9.03584C20.0593 9.07093 20.0068 9.10602 19.9528 9.14218C18.7514 9.94546 17.5396 10.7261 16.2972 11.464C16.2398 11.4983 16.1823 11.5326 16.1231 11.5679C14.512 12.528 12.8615 13.4207 11.1828 14.2554C10.9912 14.3508 10.8009 14.4483 10.6109 14.5468C9.54121 15.0975 8.44644 15.5858 7.34555 16.0692C7.22648 16.1216 7.10753 16.1742 6.98864 16.227C5.70983 16.7943 4.41019 17.3059 3.10515 17.8083C2.95926 17.8645 2.81347 17.9209 2.66769 17.9774C2.45164 18.0611 2.23526 18.1438 2.01854 18.2256C1.90363 18.2692 1.78899 18.3134 1.67435 18.3577C1.30294 18.4962 1.00343 18.5917 0.606544 18.5503C0.482995 18.4881 0.482995 18.4881 0.421221 18.3638C0.377497 18.0173 0.377497 18.0173 0.421221 17.8665C0.646138 17.6561 0.860154 17.5556 1.149 17.4562C1.23489 17.426 1.32077 17.3958 1.40666 17.3656C1.47503 17.3419 1.47503 17.3419 1.5448 17.3178C3.63916 16.5906 5.69198 15.7383 7.7106 14.8206C7.77865 14.7898 7.84669 14.759 7.9168 14.7272C9.98275 13.7874 12.023 12.7859 13.9913 11.6527C14.235 11.5124 14.4802 11.3754 14.7268 11.2403C16.9846 9.99988 19.1451 8.54981 21.2392 7.05059C21.2868 7.01655 21.3344 6.98252 21.3834 6.94745C22.0213 6.4902 22.6487 6.02044 23.2681 5.5381C23.4043 5.43206 23.5408 5.32639 23.6774 5.22074C24.5945 4.50902 25.4856 3.76663 26.3665 3.01016C26.4026 2.97922 26.4386 2.94828 26.4758 2.9164C26.5887 2.81953 26.7016 2.72256 26.8143 2.62554C26.8646 2.58237 26.8646 2.58237 26.9159 2.53834C27.2097 2.28499 27.4986 2.02623 27.7873 1.76695C27.691 1.7689 27.691 1.7689 27.5927 1.77089C27.3542 1.7754 27.1157 1.77825 26.8771 1.7806C26.7739 1.78185 26.6707 1.78355 26.5676 1.7857C26.4191 1.78873 26.2707 1.79013 26.1223 1.79123C26.0763 1.79251 26.0302 1.79379 25.9828 1.79512C25.7672 1.79521 25.6477 1.78378 25.4723 1.65276C25.3446 1.47057 25.3464 1.36383 25.3781 1.14534C25.4567 0.998903 25.5057 0.917106 25.6639 0.861143C25.8706 0.823639 26.0776 0.812584 26.2868 0.801274C26.3336 0.798588 26.3804 0.795903 26.4285 0.793136C26.5803 0.784577 26.7321 0.776468 26.8838 0.768494C26.9352 0.765768 26.9866 0.763041 27.0395 0.760232C27.6617 0.727646 28.2839 0.696948 28.9069 0.690793Z" fill="white"/>
<path d="M9.98904 16.9795C10.0321 16.9792 10.0751 16.9789 10.1194 16.9785C10.2616 16.9777 10.4038 16.9777 10.546 16.9779C10.6449 16.9776 10.7437 16.9774 10.8426 16.9771C11.0498 16.9766 11.2571 16.9766 11.4643 16.977C11.7299 16.9773 11.9954 16.9763 12.261 16.9748C12.4651 16.9739 12.6693 16.9739 12.8735 16.974C12.9714 16.974 13.0693 16.9737 13.1672 16.9731C13.3042 16.9723 13.4411 16.9727 13.578 16.9734C13.6559 16.9734 13.7338 16.9734 13.8141 16.9733C14.0256 16.9983 14.1111 17.0311 14.2585 17.1831C14.3145 17.3521 14.3281 17.45 14.3286 17.6236C14.3288 17.6756 14.3291 17.7275 14.3294 17.781C14.3294 17.8381 14.3294 17.8951 14.3294 17.9539C14.3296 18.0145 14.3298 18.0751 14.33 18.1375C14.3307 18.3415 14.331 18.5455 14.3312 18.7496C14.3316 18.8954 14.332 19.0413 14.3324 19.1872C14.3335 19.5842 14.3342 19.9812 14.3347 20.3781C14.335 20.626 14.3354 20.8738 14.3357 21.1216C14.3368 21.8077 14.3377 22.4938 14.3381 23.1798C14.3383 23.3578 14.3384 23.5359 14.3385 23.7139C14.3385 23.7581 14.3386 23.8023 14.3386 23.8479C14.3391 24.565 14.3407 25.2821 14.3427 25.9992C14.3447 26.7352 14.3458 27.4713 14.346 28.2074C14.3462 28.6207 14.3467 29.0341 14.3483 29.4474C14.3497 29.8361 14.35 30.2247 14.3493 30.6134C14.3493 30.7562 14.3497 30.899 14.3505 31.0418C14.3516 31.2365 14.3512 31.4311 14.3504 31.6258C14.3511 31.6826 14.3517 31.7393 14.3524 31.7978C14.3498 32.0538 14.3401 32.1923 14.2075 32.4164C14.0155 32.5883 13.8829 32.5754 13.6284 32.5749C13.5841 32.5753 13.5398 32.5756 13.4941 32.576C13.3479 32.5767 13.2018 32.5752 13.0556 32.5736C12.9539 32.5735 12.8522 32.5735 12.7505 32.5736C12.5375 32.5735 12.3246 32.5724 12.1116 32.5704C11.8385 32.5679 11.5655 32.5677 11.2923 32.5681C11.0824 32.5683 10.8725 32.5676 10.6626 32.5665C10.5619 32.5661 10.4612 32.5659 10.3605 32.5659C10.2198 32.5658 10.0792 32.5645 9.93861 32.5628C9.85856 32.5623 9.7785 32.5618 9.69603 32.5612C9.50186 32.5367 9.50186 32.5367 9.38576 32.4535C9.26672 32.2759 9.24702 32.1194 9.24681 31.9116C9.24662 31.8601 9.24642 31.8086 9.24621 31.7555C9.24631 31.699 9.2464 31.6424 9.2465 31.5841C9.24636 31.524 9.24622 31.4639 9.24608 31.402C9.24568 31.1997 9.24574 30.9974 9.24579 30.7951C9.2456 30.6505 9.24539 30.5058 9.24516 30.3612C9.24461 29.9675 9.24447 29.5739 9.24443 29.1802C9.24437 28.852 9.24414 28.5237 9.24392 28.1954C9.24344 27.4654 9.24327 26.7354 9.24331 26.0053C9.24331 25.9615 9.24331 25.9177 9.24331 25.8725C9.24332 25.8287 9.24332 25.7848 9.24332 25.7396C9.24335 25.0285 9.24276 24.3175 9.24188 23.6064C9.241 22.8766 9.24057 22.1467 9.24062 21.4168C9.24064 21.0069 9.24046 20.597 9.23981 20.1872C9.23921 19.8018 9.23921 19.4164 9.23966 19.031C9.23972 18.8894 9.23957 18.7477 9.2392 18.6061C9.23873 18.4131 9.23901 18.2201 9.23949 18.0271C9.23917 17.9708 9.23885 17.9145 9.23853 17.8565C9.24125 17.3593 9.24125 17.3593 9.37831 17.1209C9.60557 16.9684 9.71789 16.9805 9.98904 16.9795ZM10.1814 17.929C10.1814 22.4624 10.1814 26.9957 10.1814 31.6665C11.2414 31.6665 12.3015 31.6665 13.3936 31.6665C13.3936 27.1331 13.3936 22.5997 13.3936 17.929C12.3336 17.929 11.2735 17.929 10.1814 17.929Z" fill="white"/>
<path d="M1.04333 22.564C1.08754 22.5635 1.13176 22.563 1.17732 22.5624C1.32354 22.561 1.46973 22.5609 1.61596 22.561C1.71759 22.5606 1.81923 22.5601 1.92086 22.5596C2.13393 22.5587 2.34699 22.5586 2.56006 22.559C2.8331 22.5594 3.10608 22.5575 3.37912 22.555C3.58903 22.5533 3.79893 22.5532 4.00885 22.5534C4.10952 22.5533 4.21018 22.5527 4.31083 22.5516C4.45165 22.5502 4.59233 22.5508 4.73314 22.5519C4.81324 22.5518 4.89334 22.5516 4.97587 22.5515C5.17788 22.5901 5.17788 22.5901 5.31215 22.7236C5.44515 22.9326 5.45577 23.0443 5.45553 23.2906C5.45604 23.3691 5.45656 23.4477 5.4571 23.5286C5.45642 23.6151 5.45572 23.7017 5.45499 23.7882C5.45513 23.8797 5.45537 23.9712 5.4557 24.0627C5.4563 24.3108 5.45536 24.5589 5.4541 24.8071C5.45302 25.0668 5.45324 25.3265 5.45328 25.5862C5.45317 26.0223 5.4521 26.4583 5.45041 26.8944C5.44846 27.3986 5.44781 27.9028 5.4479 28.407C5.44798 28.892 5.44735 29.3771 5.44632 29.8622C5.44589 30.0686 5.44566 30.275 5.4456 30.4814C5.44547 30.7245 5.44472 30.9675 5.44348 31.2105C5.44311 31.2997 5.44296 31.3889 5.44303 31.4781C5.44309 31.5998 5.44232 31.7215 5.4415 31.8432C5.44129 31.9114 5.44109 31.9795 5.44087 32.0497C5.42498 32.2251 5.39728 32.3276 5.30143 32.4737C5.11795 32.566 4.9519 32.5448 4.74717 32.5458C4.70286 32.5461 4.65855 32.5465 4.6129 32.5468C4.46605 32.5477 4.31921 32.5481 4.17236 32.5484C4.07049 32.5488 3.96862 32.5492 3.86675 32.5495C3.65306 32.5502 3.43936 32.5505 3.22567 32.5508C2.95159 32.5511 2.67754 32.5526 2.40347 32.5544C2.19303 32.5555 1.98259 32.5558 1.77215 32.5559C1.67109 32.5561 1.57004 32.5566 1.46898 32.5574C1.32774 32.5585 1.18654 32.5584 1.04529 32.558C0.964862 32.5582 0.884437 32.5584 0.801576 32.5587C0.606576 32.5358 0.606576 32.5358 0.503198 32.4652C0.384447 32.2973 0.397924 32.1697 0.39772 31.9648C0.397198 31.8842 0.396675 31.8037 0.396137 31.7207C0.396497 31.6313 0.396877 31.5418 0.397273 31.4524C0.397022 31.3583 0.396692 31.2643 0.396289 31.1703C0.395443 30.9147 0.395773 30.6591 0.39636 30.4036C0.396828 30.1363 0.396394 29.8691 0.396103 29.6019C0.395765 29.1531 0.39621 28.7044 0.397092 28.2556C0.398101 27.7364 0.397774 27.2173 0.396754 26.6981C0.395914 26.2527 0.395794 25.8074 0.396279 25.362C0.396569 25.0958 0.396606 24.8296 0.395995 24.5635C0.39546 24.3133 0.395829 24.0631 0.396902 23.8129C0.397147 23.7209 0.397076 23.629 0.396668 23.537C0.396163 23.4118 0.396907 23.2865 0.39772 23.1612C0.39779 23.091 0.39786 23.0209 0.397932 22.9485C0.421253 22.7766 0.421253 22.7766 0.50325 22.6609C0.67419 22.5439 0.839764 22.5654 1.04333 22.564ZM1.28609 23.5225C1.28609 26.2097 1.28609 28.8969 1.28609 31.6656C2.34614 31.6656 3.40619 31.6656 4.49836 31.6656C4.49836 28.9784 4.49836 26.2912 4.49836 23.5225C3.43832 23.5225 2.37827 23.5225 1.28609 23.5225Z" fill="white"/>
</g>
<defs>
<clipPath id="clip0_493_8685">
<rect width="31.6285" height="31.8262" fill="white" transform="translate(0.421143 0.710938)"/>
</clipPath>
</defs>
</svg>
