<svg width="53" height="40" viewBox="0 0 53 40" fill="none" xmlns="http://www.w3.org/2000/svg">
<mask id="path-1-inside-1_278_608" fill="white">
<path d="M20 -8.74228e-07C14.6957 -6.42368e-07 9.60859 2.10714 5.85786 5.85786C2.10714 9.60859 -7.05622e-07 14.6957 -8.74228e-07 20C-1.04283e-06 25.3043 2.10714 30.3914 5.85786 34.1421C9.60859 37.8929 14.6957 40 20 40L20 20L20 -8.74228e-07Z"/>
</mask>
<path d="M20 -8.74228e-07C14.6957 -6.42368e-07 9.60859 2.10714 5.85786 5.85786C2.10714 9.60859 -7.05622e-07 14.6957 -8.74228e-07 20C-1.04283e-06 25.3043 2.10714 30.3914 5.85786 34.1421C9.60859 37.8929 14.6957 40 20 40L20 20L20 -8.74228e-07Z" fill="#D5DEDE" fill-opacity="0.25" stroke="white" stroke-width="2" mask="url(#path-1-inside-1_278_608)"/>
<mask id="path-2-inside-2_278_608" fill="white">
<path d="M33 8.74228e-07C38.3043 6.42368e-07 43.3914 2.10714 47.1421 5.85786C50.8929 9.60859 53 14.6957 53 20C53 25.3043 50.8929 30.3914 47.1421 34.1421C43.3914 37.8929 38.3043 40 33 40L33 20L33 8.74228e-07Z"/>
</mask>
<path d="M33 8.74228e-07C38.3043 6.42368e-07 43.3914 2.10714 47.1421 5.85786C50.8929 9.60859 53 14.6957 53 20C53 25.3043 50.8929 30.3914 47.1421 34.1421C43.3914 37.8929 38.3043 40 33 40L33 20L33 8.74228e-07Z" fill="#D5DEDE" fill-opacity="0.25" stroke="white" stroke-width="2" mask="url(#path-2-inside-2_278_608)"/>
<path d="M33 -8.74228e-07C27.6957 -6.42368e-07 22.6086 2.10714 18.8579 5.85786C15.1071 9.60859 13 14.6957 13 20C13 25.3043 15.1071 30.3914 18.8579 34.1421C22.6086 37.8929 27.6957 40 33 40L33 20L33 -8.74228e-07Z" fill="#D5DEDE" fill-opacity="0.5"/>
<path d="M20 8.74228e-07C25.3043 6.42368e-07 30.3914 2.10714 34.1421 5.85786C37.8929 9.60859 40 14.6957 40 20C40 25.3043 37.8929 30.3914 34.1421 34.1421C30.3914 37.8929 25.3043 40 20 40L20 20L20 8.74228e-07Z" fill="#D5DEDE" fill-opacity="0.5"/>
</svg>
