<svg width="53" height="42" viewBox="0 0 53 42" fill="none" xmlns="http://www.w3.org/2000/svg">
<path d="M1.42315 22.3206L11.4612 22.1792C12.0996 30.4654 17.6342 37.3912 25.2011 40.1303C23.9276 40.4094 22.6079 40.5651 21.2547 40.5841C10.3159 40.7382 1.31401 31.9082 1.1583 20.8514C1.00258 9.79465 9.75229 0.714633 20.691 0.560581C22.2386 0.538786 23.7474 0.696816 25.1979 1.01554C17.1484 3.93077 11.3995 11.584 11.3995 20.5723C11.3995 20.7755 11.4024 20.9781 11.4083 21.1798L1.40907 21.3207L1.42315 22.3206ZM26.9824 39.6507C19.0628 37.4452 13.1357 30.5357 12.4632 22.1651L20.4213 22.053L20.4072 21.0531L12.4083 21.1658C12.4025 20.9687 12.3995 20.7708 12.3995 20.5723C12.3995 11.4969 18.563 3.84125 26.9769 1.49551C34.8817 4.03409 40.6629 11.4518 40.7874 20.2933C40.9147 29.3328 35.0896 37.0511 26.9824 39.6507ZM41.7873 20.2792C41.6646 11.5654 36.3032 4.1604 28.768 1.08366C29.95 0.868343 31.1683 0.755822 32.4133 0.755822C43.4711 0.755822 52.427 9.63252 52.427 20.5723C52.427 31.5122 43.4711 40.3888 32.4133 40.3888C31.1709 40.3888 29.9551 40.2768 28.7756 40.0624C36.5098 36.9068 41.9129 29.2014 41.7873 20.2792Z" stroke="white"/>
</svg>
