<svg width="50" height="50" viewBox="0 0 50 50" fill="none" xmlns="http://www.w3.org/2000/svg">
<path d="M25 25H25.0208" stroke="black" stroke-linecap="round" stroke-linejoin="round"/>
<path d="M33.3334 12.5V8.33329C33.3334 7.22822 32.8944 6.16842 32.113 5.38701C31.3316 4.60561 30.2718 4.16663 29.1667 4.16663H20.8334C19.7283 4.16663 18.6685 4.60561 17.8871 5.38701C17.1057 6.16842 16.6667 7.22822 16.6667 8.33329V12.5" stroke="black" stroke-linecap="round" stroke-linejoin="round"/>
<path d="M45.8334 27.0834C39.6517 31.1646 32.4075 33.3403 25.0001 33.3403C17.5927 33.3403 10.3484 31.1646 4.16675 27.0834" stroke="black" stroke-linecap="round" stroke-linejoin="round"/>
<path d="M41.6668 12.5H8.33342C6.03223 12.5 4.16675 14.3655 4.16675 16.6667V37.5C4.16675 39.8012 6.03223 41.6667 8.33342 41.6667H41.6668C43.9679 41.6667 45.8334 39.8012 45.8334 37.5V16.6667C45.8334 14.3655 43.9679 12.5 41.6668 12.5Z" stroke="black" stroke-linecap="round" stroke-linejoin="round"/>
</svg>
