<svg width="50" height="50" viewBox="0 0 50 50" fill="none" xmlns="http://www.w3.org/2000/svg">
<path d="M33.3334 43.75V39.5833C33.3334 37.3732 32.4554 35.2536 30.8926 33.6908C29.3298 32.128 27.2102 31.25 25.0001 31.25H12.5001C10.2899 31.25 8.17033 32.128 6.60752 33.6908C5.04472 35.2536 4.16675 37.3732 4.16675 39.5833V43.75" stroke="black" stroke-linecap="round" stroke-linejoin="round"/>
<path d="M33.3333 6.51672C35.1202 6.97999 36.7028 8.02352 37.8326 9.48352C38.9623 10.9435 39.5753 12.7373 39.5753 14.5834C39.5753 16.4295 38.9623 18.2233 37.8326 19.6833C36.7028 21.1433 35.1202 22.1868 33.3333 22.6501" stroke="black" stroke-linecap="round" stroke-linejoin="round"/>
<path d="M45.8333 43.75V39.5834C45.8319 37.737 45.2173 35.9433 44.0861 34.484C42.9549 33.0247 41.371 31.9825 39.5833 31.5209" stroke="black" stroke-linecap="round" stroke-linejoin="round"/>
<path d="M18.7501 22.9167C23.3525 22.9167 27.0834 19.1857 27.0834 14.5833C27.0834 9.98096 23.3525 6.25 18.7501 6.25C14.1477 6.25 10.4167 9.98096 10.4167 14.5833C10.4167 19.1857 14.1477 22.9167 18.7501 22.9167Z" stroke="black" stroke-linecap="round" stroke-linejoin="round"/>
</svg>
