<svg width="50" height="50" viewBox="0 0 50 50" fill="none" xmlns="http://www.w3.org/2000/svg">
<path d="M31.25 43.75V27.0833C31.25 26.5308 31.0305 26.0009 30.6398 25.6102C30.2491 25.2195 29.7192 25 29.1667 25H20.8333C20.2808 25 19.7509 25.2195 19.3602 25.6102C18.9695 26.0009 18.75 26.5308 18.75 27.0833V43.75" stroke="black" stroke-linecap="round" stroke-linejoin="round"/>
<path d="M6.25 20.8333C6.24985 20.2272 6.38195 19.6284 6.63706 19.0786C6.89217 18.5288 7.26416 18.0412 7.72708 17.65L22.3104 5.14998C23.0625 4.51437 24.0153 4.16565 25 4.16565C25.9847 4.16565 26.9375 4.51437 27.6896 5.14998L42.2729 17.65C42.7358 18.0412 43.1078 18.5288 43.3629 19.0786C43.6181 19.6284 43.7501 20.2272 43.75 20.8333V39.5833C43.75 40.6884 43.311 41.7482 42.5296 42.5296C41.7482 43.311 40.6884 43.75 39.5833 43.75H10.4167C9.3116 43.75 8.25179 43.311 7.47039 42.5296C6.68899 41.7482 6.25 40.6884 6.25 39.5833V20.8333Z" stroke="black" stroke-linecap="round" stroke-linejoin="round"/>
</svg>
