<svg width="47" height="36" viewBox="0 0 47 36" fill="none" xmlns="http://www.w3.org/2000/svg">
<path d="M46.7613 1.29874C46.7613 1.64319 46.6245 1.97353 46.3809 2.21709C46.1374 2.46066 45.807 2.59749 45.4626 2.59749C45.1181 2.59749 44.7878 2.46066 44.5442 2.21709C44.3007 1.97353 44.1638 1.64319 44.1638 1.29874C44.1638 0.954296 44.3007 0.623955 44.5442 0.380393C44.7878 0.136832 45.1181 0 45.4626 0C45.807 0 46.1374 0.136832 46.3809 0.380393C46.6245 0.623955 46.7613 0.954296 46.7613 1.29874Z" fill="#272727"/>
<path fill-rule="evenodd" clip-rule="evenodd" d="M11.9069 35.326C5.33082 35.326 0 29.9952 0 23.4191V0.866211H4.32977V23.4191C4.32977 25.4287 5.12807 27.356 6.54905 28.777C7.97004 30.1979 9.8973 30.9962 11.9069 30.9962C16.144 30.9962 19.484 27.7307 19.484 23.5975H23.8138V30.0922C23.8138 30.3793 23.9278 30.6546 24.1308 30.8576C24.3338 31.0606 24.6091 31.1746 24.8962 31.1746C25.1833 31.1746 25.4586 31.0606 25.6616 30.8576C25.8646 30.6546 25.9786 30.3793 25.9786 30.0922V22.4068C25.1922 22.5674 24.3799 22.551 23.6006 22.3588C22.8213 22.1667 22.0945 21.8036 21.4728 21.2959C20.8511 20.7882 20.3501 20.1486 20.0062 19.4234C19.6622 18.6981 19.4838 17.9055 19.484 17.1029V6.27843C19.484 4.84302 20.0542 3.4664 21.0692 2.45141C22.0842 1.43642 23.4608 0.866211 24.8962 0.866211C26.3316 0.866211 27.7082 1.43642 28.7232 2.45141C29.7382 3.4664 30.3084 4.84302 30.3084 6.27843V30.0922C30.3084 30.3793 30.4225 30.6546 30.6255 30.8576C30.8284 31.0606 31.1038 31.1746 31.3909 31.1746C31.6779 31.1746 31.9533 31.0606 32.1563 30.8576C32.3593 30.6546 32.4733 30.3793 32.4733 30.0922V6.27843C32.4733 4.84302 33.0435 3.4664 34.0585 2.45141C35.0735 1.43642 36.4501 0.866211 37.8855 0.866211C39.3209 0.866211 40.6975 1.43642 41.7125 2.45141C42.7275 3.4664 43.2977 4.84302 43.2977 6.27843V30.0922C43.2977 31.0973 43.0178 32.0825 42.4894 32.9375C41.961 33.7925 41.2049 34.4835 40.3059 34.933C39.4069 35.3825 38.4005 35.5728 37.3995 35.4825C36.3984 35.3923 35.4423 35.025 34.6382 34.4219C33.7022 35.1261 32.5622 35.5061 31.3909 35.5044C30.2195 35.5061 29.0795 35.1261 28.1435 34.4219C27.4921 34.9104 26.7389 35.2457 25.94 35.4027C25.1411 35.5598 24.317 35.5346 23.5292 35.329C22.7414 35.1234 22.0101 34.7428 21.3898 34.2154C20.7694 33.688 20.2761 33.0275 19.9464 32.283C17.8196 34.1855 14.9905 35.326 11.9069 35.326ZM37.8855 31.1746C37.288 31.1746 36.8031 30.6897 36.8031 30.0922V6.27843C36.8031 5.99134 36.9171 5.71602 37.1201 5.51302C37.3231 5.31003 37.5984 5.19598 37.8855 5.19598C38.1726 5.19598 38.4479 5.31003 38.6509 5.51302C38.8539 5.71602 38.968 5.99134 38.968 6.27843V30.0922C38.968 30.6897 38.483 31.1746 37.8855 31.1746ZM25.9786 17.1029C25.9786 17.3899 25.8646 17.6653 25.6616 17.8683C25.4586 18.0713 25.1833 18.1853 24.8962 18.1853C24.6091 18.1853 24.3338 18.0713 24.1308 17.8683C23.9278 17.6653 23.8138 17.3899 23.8138 17.1029V6.27843C23.8138 5.99134 23.9278 5.71602 24.1308 5.51302C24.3338 5.31003 24.6091 5.19598 24.8962 5.19598C25.1833 5.19598 25.4586 5.31003 25.6616 5.51302C25.8646 5.71602 25.9786 5.99134 25.9786 6.27843V17.1029Z" fill="#272727"/>
<path fill-rule="evenodd" clip-rule="evenodd" d="M6.49438 23.5975C6.49438 25.0329 7.0646 26.4095 8.07959 27.4245C9.09457 28.4395 10.4712 29.0097 11.9066 29.0097C13.342 29.0097 14.7186 28.4395 15.7336 27.4245C16.7486 26.4095 17.3188 25.0329 17.3188 23.5975V6.27843C17.3188 4.84302 16.7486 3.4664 15.7336 2.45141C14.7186 1.43642 13.342 0.866211 11.9066 0.866211C10.4712 0.866211 9.09457 1.43642 8.07959 2.45141C7.0646 3.4664 6.49438 4.84302 6.49438 6.27843V23.5975ZM11.9066 24.68C11.3091 24.68 10.8242 24.195 10.8242 23.5975V6.27843C10.8242 5.99135 10.9382 5.71602 11.1412 5.51302C11.3442 5.31003 11.6195 5.19598 11.9066 5.19598C12.1937 5.19598 12.469 5.31003 12.672 5.51302C12.875 5.71602 12.989 5.99135 12.989 6.27843V23.5975C12.989 24.195 12.5041 24.68 11.9066 24.68Z" fill="#272727"/>
</svg>
