<svg width="89" height="89" viewBox="0 0 89 89" fill="none" xmlns="http://www.w3.org/2000/svg">
<g clip-path="url(#clip0_69_1901)">
<path d="M44.4451 44.5549C44.4451 44.5549 45.9145 65.8971 33.6556 78.155C21.3967 90.413 0.0554321 88.9445 0.0554321 88.9445C0.0554321 88.9445 -1.41396 67.6023 10.8449 55.3443C23.1038 43.0864 44.4451 44.5549 44.4451 44.5549Z" fill="#2c3f6e"/>
<path d="M88.9451 0.0548633C88.9451 0.0548633 90.4145 21.3971 78.1556 33.655C65.8967 45.913 44.5554 44.4445 44.5554 44.4445C44.5554 44.4445 43.086 23.1023 55.3449 10.8443C67.6038 -1.41364 88.9451 0.0548633 88.9451 0.0548633Z" fill="#2c3f6e"/>
<path d="M44.445 44.4446C44.445 44.4446 23.1028 45.914 10.8448 33.6551C-1.41315 21.3963 0.0553516 0.0549438 0.0553516 0.0549438C0.0553516 0.0549438 21.3976 -1.41445 33.6555 10.8444C45.9135 23.1033 44.445 44.4446 44.445 44.4446Z" fill="#2c3f6e"/>
<path d="M88.945 88.9446C88.945 88.9446 67.6028 90.414 55.3448 78.1551C43.0869 65.8963 44.5554 44.5549 44.5554 44.5549C44.5554 44.5549 65.8976 43.0856 78.1555 55.3444C90.4135 67.6033 88.945 88.9446 88.945 88.9446Z" fill="#2c3f6e"/>
</g>
<defs>
<clipPath id="clip0_69_1901">
<rect width="89" height="89" fill="white"/>
</clipPath>
</defs>
</svg>
