<svg width="91" height="91" viewBox="0 0 91 91" fill="none" xmlns="http://www.w3.org/2000/svg">
<g clip-path="url(#clip0_69_1822)">
<path d="M45.4996 56.5161C43.3222 56.5152 41.194 55.8688 39.3839 54.6586C37.5739 53.4483 36.1633 51.7286 35.3305 49.7168C34.4976 47.705 34.28 45.4914 34.705 43.3559C35.13 41.2204 36.1786 39.2588 37.7182 37.7192C39.2579 36.1795 41.2194 35.1309 43.3549 34.7059C45.4904 34.2809 47.704 34.4986 49.7158 35.3314C51.7276 36.1643 53.4473 37.5749 54.6576 39.3849C55.8678 41.195 56.5143 43.3232 56.5152 45.5006C56.512 48.4211 55.3505 51.2212 53.2853 53.2863C51.2202 55.3514 48.4202 56.513 45.4996 56.5161V56.5161ZM45.4996 38.1296C44.0418 38.1296 42.6167 38.5619 41.4045 39.3718C40.1924 40.1818 39.2476 41.333 38.6897 42.6798C38.1318 44.0267 37.9858 45.5088 38.2702 46.9386C38.5547 48.3684 39.2567 49.6818 40.2875 50.7127C41.3184 51.7435 42.6318 52.4456 44.0616 52.73C45.4914 53.0144 46.9735 52.8684 48.3204 52.3105C49.6672 51.7526 50.8184 50.8079 51.6284 49.5957C52.4383 48.3835 52.8706 46.9584 52.8706 45.5006C52.8672 43.5467 52.0896 41.6738 50.708 40.2922C49.3264 38.9106 47.4535 38.133 45.4996 38.1296V38.1296Z" fill="#79c4e7"/>
<path d="M45.5002 63.4136C41.9572 63.4138 38.4938 62.3634 35.5478 60.3951C32.6019 58.4269 30.3057 55.6293 28.9498 52.356C27.5938 49.0828 27.2389 45.481 27.93 42.0061C28.6211 38.5312 30.3271 35.3393 32.8323 32.8339C35.3375 30.3286 38.5294 28.6225 42.0042 27.9312C45.4791 27.2399 49.0809 27.5946 52.3542 28.9504C55.6275 30.3062 58.4253 32.6022 60.3936 35.5481C62.362 38.4939 63.4126 41.9573 63.4126 45.5003C63.4073 50.2494 61.5185 54.8025 58.1604 58.1608C54.8024 61.519 50.2493 63.4081 45.5002 63.4136V63.4136ZM45.5002 31.2269C42.6772 31.2267 39.9175 32.0637 37.5701 33.632C35.2228 35.2002 33.3932 37.4294 32.3127 40.0375C31.2322 42.6456 30.9495 45.5155 31.5001 48.2843C32.0507 51.0531 33.4101 53.5965 35.4062 55.5927C37.4023 57.589 39.9456 58.9485 42.7144 59.4993C45.4832 60.0501 48.3531 59.7675 50.9613 58.6872C53.5694 57.6069 55.7987 55.7775 57.3671 53.4302C58.9355 51.083 59.7726 48.3233 59.7726 45.5003C59.769 41.716 58.2642 38.0878 55.5884 35.4118C52.9126 32.7358 49.2845 31.2308 45.5002 31.2269V31.2269Z" fill="#79c4e7"/>
<path d="M45.4998 70.3101C40.5929 70.3101 35.7963 68.855 31.7164 66.129C27.6366 63.4029 24.4567 59.5282 22.5789 54.9949C20.7012 50.4616 20.2099 45.4732 21.1671 40.6607C22.1244 35.8481 24.4873 31.4275 27.9569 27.9579C31.4266 24.4883 35.8472 22.1254 40.6597 21.1681C45.4722 20.2108 50.4606 20.7022 54.9939 22.5799C59.5272 24.4577 63.4019 27.6375 66.128 31.7174C68.8541 35.7973 70.3091 40.5939 70.3091 45.5007C70.3016 52.0783 67.6854 58.3843 63.0344 63.0353C58.3833 67.6864 52.0773 70.3026 45.4998 70.3101V70.3101ZM45.4998 24.3314C41.3129 24.3314 37.22 25.573 33.7387 27.8991C30.2574 30.2252 27.5441 33.5314 25.9419 37.3996C24.3396 41.2678 23.9204 45.5242 24.7372 49.6307C25.554 53.7371 27.5702 57.5091 30.5308 60.4697C33.4914 63.4303 37.2634 65.4465 41.3698 66.2633C45.4763 67.0801 49.7327 66.6609 53.6009 65.0587C57.4691 63.4564 60.7753 60.7431 63.1014 57.2618C65.4275 53.7805 66.6691 49.6876 66.6691 45.5007C66.6626 39.8883 64.4302 34.5076 60.4616 30.539C56.493 26.5703 51.1122 24.3379 45.4998 24.3314V24.3314Z" fill="#79c4e7"/>
<path d="M45.5002 77.2064C39.2293 77.2064 33.0992 75.3469 27.8851 71.8629C22.6711 68.379 18.6072 63.4272 16.2075 57.6336C13.8077 51.8401 13.1798 45.465 14.4032 39.3146C15.6266 33.1642 18.6463 27.5147 23.0805 23.0805C27.5147 18.6463 33.1642 15.6266 39.3146 14.4032C45.465 13.1798 51.8401 13.8077 57.6336 16.2075C63.4272 18.6072 68.379 22.6711 71.8629 27.8851C75.3469 33.0992 77.2064 39.2293 77.2064 45.5002C77.197 53.9063 73.8535 61.9654 67.9095 67.9095C61.9654 73.8535 53.9063 77.197 45.5002 77.2064ZM45.5002 17.434C39.9492 17.434 34.5229 19.08 29.9074 22.164C25.292 25.2479 21.6946 29.6313 19.5704 34.7597C17.4461 39.8881 16.8903 45.5313 17.9732 50.9756C19.0562 56.4199 21.7292 61.4209 25.6544 65.346C29.5795 69.2711 34.5804 71.9442 40.0247 73.0271C45.469 74.1101 51.1122 73.5542 56.2407 71.43C61.3691 69.3057 65.7524 65.7084 68.8364 61.0929C71.9203 56.4775 73.5664 51.0512 73.5664 45.5002C73.558 38.0591 70.5983 30.9253 65.3367 25.6637C60.0751 20.4021 52.9412 17.4424 45.5002 17.434V17.434Z" fill="#79c4e7"/>
<path d="M45.5001 84.1027C37.8651 84.1027 30.4016 81.8387 24.0534 77.5969C17.7051 73.3552 12.7573 67.3262 9.83548 60.2724C6.9137 53.2186 6.14923 45.4568 7.63874 37.9685C9.12825 30.4803 12.8048 23.6018 18.2036 18.2031C23.6023 12.8043 30.4807 9.12776 37.969 7.63825C45.4573 6.14874 53.2191 6.91321 60.2729 9.83499C67.3267 12.7568 73.3557 17.7046 77.5974 24.0529C81.8392 30.4011 84.1032 37.8646 84.1032 45.4996C84.0917 55.7342 80.0208 65.5464 72.7839 72.7834C65.5469 80.0204 55.7347 84.0912 45.5001 84.1027V84.1027ZM45.5001 10.5365C38.5851 10.5365 31.8253 12.5871 26.0756 16.4288C20.326 20.2706 15.8447 25.7311 13.1984 32.1198C10.5521 38.5085 9.85974 45.5384 11.2088 52.3206C12.5579 59.1028 15.8878 65.3326 20.7774 70.2223C25.6671 75.1119 31.897 78.4419 38.6791 79.7909C45.4613 81.14 52.4912 80.4476 58.8799 77.8013C65.2686 75.155 70.7291 70.6737 74.5709 64.9241C78.4127 59.1744 80.4632 52.4147 80.4632 45.4996C80.4529 36.23 76.7659 27.343 70.2113 20.7884C63.6567 14.2338 54.7697 10.5469 45.5001 10.5365V10.5365Z" fill="#79c4e7"/>
<path d="M45.5 91C36.501 91 27.704 88.3315 20.2216 83.3319C12.7391 78.3323 6.90729 71.2262 3.4635 62.9121C0.0197144 54.5981 -0.881337 45.4495 0.87429 36.6234C2.62992 27.7973 6.96337 19.69 13.3267 13.3267C19.69 6.96337 27.7973 2.62992 36.6234 0.87429C45.4495 -0.881337 54.5981 0.0197144 62.9121 3.4635C71.2262 6.90729 78.3323 12.7391 83.3319 20.2216C88.3315 27.704 91 36.501 91 45.5C90.9863 57.5632 86.1881 69.1283 77.6582 77.6582C69.1283 86.1881 57.5632 90.9863 45.5 91V91ZM45.5 3.64002C37.2209 3.64002 29.1277 6.09507 22.2439 10.6947C15.36 15.2943 9.99471 21.832 6.82642 29.4809C3.65814 37.1298 2.82917 45.5465 4.44435 53.6665C6.05953 61.7865 10.0463 69.2453 15.9005 75.0995C21.7548 80.9537 29.2135 84.9405 37.3335 86.5557C45.4536 88.1709 53.8702 87.3419 61.5192 84.1736C69.1681 81.0053 75.7057 75.64 80.3053 68.7562C84.905 61.8723 87.36 53.7791 87.36 45.5C87.3473 34.402 82.9329 23.7621 75.0854 15.9146C67.2379 8.06712 56.5981 3.65279 45.5 3.64002V3.64002Z" fill="#79c4e7"/>
</g>
<defs>
<clipPath id="clip0_69_1822">
<rect width="91" height="91" fill="white"/>
</clipPath>
</defs>
</svg>
