<svg width="90" height="90" viewBox="0 0 90 90" fill="none" xmlns="http://www.w3.org/2000/svg">
<g clip-path="url(#clip0_69_1829)">
<path d="M90 0H0V90H90V0Z" fill="#b5dbed"/>
<path d="M70.1235 25.9854C73.3822 25.9854 76.0239 23.3437 76.0239 20.085C76.0239 16.8263 73.3822 14.1846 70.1235 14.1846C66.8648 14.1846 64.2231 16.8263 64.2231 20.085C64.2231 23.3437 66.8648 25.9854 70.1235 25.9854Z" fill="#79c4e7"/>
<path d="M70.1235 50.9004C73.3822 50.9004 76.0239 48.2587 76.0239 45C76.0239 41.7413 73.3822 39.0996 70.1235 39.0996C66.8648 39.0996 64.2231 41.7413 64.2231 45C64.2231 48.2587 66.8648 50.9004 70.1235 50.9004Z" fill="#79c4e7"/>
<path d="M45 25.9854C48.2587 25.9854 50.9004 23.3437 50.9004 20.085C50.9004 16.8263 48.2587 14.1846 45 14.1846C41.7413 14.1846 39.0996 16.8263 39.0996 20.085C39.0996 23.3437 41.7413 25.9854 45 25.9854Z" fill="#79c4e7"/>
<path d="M45 50.9004C48.2587 50.9004 50.9004 48.2587 50.9004 45C50.9004 41.7413 48.2587 39.0996 45 39.0996C41.7413 39.0996 39.0996 41.7413 39.0996 45C39.0996 48.2587 41.7413 50.9004 45 50.9004Z" fill="#79c4e7"/>
<path d="M19.8765 25.9854C23.1352 25.9854 25.7769 23.3437 25.7769 20.085C25.7769 16.8263 23.1352 14.1846 19.8765 14.1846C16.6178 14.1846 13.9761 16.8263 13.9761 20.085C13.9761 23.3437 16.6178 25.9854 19.8765 25.9854Z" fill="#79c4e7"/>
<path d="M70.1235 75.8145C73.3822 75.8145 76.0239 73.1728 76.0239 69.9141C76.0239 66.6554 73.3822 64.0137 70.1235 64.0137C66.8648 64.0137 64.2231 66.6554 64.2231 69.9141C64.2231 73.1728 66.8648 75.8145 70.1235 75.8145Z" fill="#79c4e7"/>
<path d="M45 75.8145C48.2587 75.8145 50.9004 73.1728 50.9004 69.9141C50.9004 66.6554 48.2587 64.0137 45 64.0137C41.7413 64.0137 39.0996 66.6554 39.0996 69.9141C39.0996 73.1728 41.7413 75.8145 45 75.8145Z" fill="#79c4e7"/>
<path d="M19.8765 75.8145C23.1352 75.8145 25.7769 73.1728 25.7769 69.9141C25.7769 66.6554 23.1352 64.0137 19.8765 64.0137C16.6178 64.0137 13.9761 66.6554 13.9761 69.9141C13.9761 73.1728 16.6178 75.8145 19.8765 75.8145Z" fill="#79c4e7"/>
<path d="M19.8765 50.9004C23.1352 50.9004 25.7769 48.2587 25.7769 45C25.7769 41.7413 23.1352 39.0996 19.8765 39.0996C16.6178 39.0996 13.9761 41.7413 13.9761 45C13.9761 48.2587 16.6178 50.9004 19.8765 50.9004Z" fill="#79c4e7"/>
</g>
<defs>
<clipPath id="clip0_69_1829">
<rect width="90" height="90" fill="white"/>
</clipPath>
</defs>
</svg>
