<svg width="334" height="301" viewBox="0 0 334 301" fill="none" xmlns="http://www.w3.org/2000/svg">
<path d="M111.685 5.76804C73.3118 16.05 40.5952 41.1543 20.732 75.5583C0.868845 109.962 -4.51384 150.848 5.7681 189.221C16.05 227.593 41.1544 260.31 75.5584 280.173C109.962 300.036 150.848 305.419 189.221 295.137L333.905 256.369L295.137 111.684C284.852 73.3139 259.747 40.5999 225.344 20.7373C190.941 0.874762 150.057 -4.50975 111.685 5.76804V5.76804ZM242.179 203.411L169.837 222.795C155.529 226.629 140.405 226.134 126.379 221.372C112.352 216.611 100.052 207.797 91.035 196.045C82.0176 184.294 76.6875 170.132 75.7187 155.351C74.75 140.57 78.186 125.834 85.5923 113.005C92.9987 100.177 104.043 89.8334 117.328 83.282C130.613 76.7305 145.542 74.2656 160.228 76.1991C174.914 78.1325 188.697 84.3774 199.834 94.1441C210.971 103.911 218.961 116.761 222.795 131.068L242.179 203.411Z" fill="#b5dbed"/>
</svg>
