<svg width="323" height="324" viewBox="0 0 323 324" fill="none" xmlns="http://www.w3.org/2000/svg">
<path d="M43.9088 43.7757L0.643888 205.242L118.328 323.351L279.3 279.908L322.565 118.441L204.881 0.332404L43.9088 43.7757ZM229.026 122.739C236.708 136.105 240.263 151.463 239.242 166.873C238.22 182.283 232.668 197.051 223.288 209.311C213.908 221.571 201.12 230.772 186.543 235.75C171.965 240.728 156.252 241.26 141.391 237.278C126.53 233.296 113.188 224.979 103.053 213.379C92.9173 201.779 86.4434 187.417 84.4498 172.11C82.4562 156.802 85.0325 141.236 91.8528 127.38C98.6731 113.524 109.431 102.001 122.766 94.2671C131.619 89.1253 141.391 85.7828 151.524 84.4311C161.657 83.0793 171.953 83.7446 181.822 86.389C191.691 89.0333 200.94 93.6049 209.039 99.8422C217.139 106.08 223.931 113.86 229.026 122.739V122.739Z" fill="#b5dbed"/>
</svg>
